<svg width="200" height="63" viewBox="0 0 200 63" fill="none" xmlns="http://www.w3.org/2000/svg">
<rect y="0.5" width="200" height="62" rx="10" fill="black"/>
<g clip-path="url(#clip0_2007_457)">
<path d="M33.5626 31.503L16.4886 47.9441C16.0949 47.675 15.7735 47.3132 15.5527 46.8905C15.332 46.4678 15.2186 45.9973 15.2228 45.5204V17.4856C15.2186 17.0087 15.332 16.5382 15.5527 16.1155C15.7735 15.6928 16.0949 15.331 16.4886 15.0619L33.5626 31.503Z" fill="#2196F3"/>
<path d="M39.5371 25.7602L33.5628 31.503L16.4888 15.0619C16.5531 15.012 16.6201 14.9657 16.6894 14.923C17.1326 14.6544 17.6393 14.5085 18.1575 14.5004C18.6756 14.4922 19.1866 14.6221 19.6381 14.8767L39.5371 25.7602Z" fill="#4CAF50"/>
<path d="M46.7771 31.503C46.7826 32.0394 46.6417 32.5672 46.3697 33.0296C46.0978 33.492 45.7049 33.8716 45.2334 34.1274L39.5369 37.2458L33.5625 31.503L39.5369 25.7602L45.2334 28.8786C45.7049 29.1344 46.0978 29.514 46.3697 29.9764C46.6417 30.4388 46.7826 30.9666 46.7771 31.503Z" fill="#FFC107"/>
<path d="M39.5371 37.2458L19.6381 48.1294C19.1854 48.3801 18.6749 48.5078 18.1576 48.4996C17.6402 48.4915 17.134 48.3479 16.6894 48.083C16.6201 48.0404 16.5531 47.994 16.4888 47.9441L33.5628 31.503L39.5371 37.2458Z" fill="#F44336"/>
</g>
<path d="M58.512 22.644C57.72 22.644 57.028 22.464 56.436 22.104C55.844 21.744 55.384 21.24 55.056 20.592C54.728 19.944 54.564 19.188 54.564 18.324C54.564 17.468 54.728 16.712 55.056 16.056C55.392 15.4 55.868 14.888 56.484 14.52C57.108 14.144 57.844 13.956 58.692 13.956C59.644 13.956 60.44 14.188 61.08 14.652C61.72 15.108 62.132 15.744 62.316 16.56H60.948C60.828 16.096 60.576 15.732 60.192 15.468C59.808 15.196 59.304 15.06 58.68 15.06C58.088 15.06 57.572 15.192 57.132 15.456C56.7 15.72 56.368 16.096 56.136 16.584C55.904 17.072 55.788 17.652 55.788 18.324C55.788 19.004 55.904 19.588 56.136 20.076C56.368 20.564 56.696 20.936 57.12 21.192C57.544 21.448 58.032 21.576 58.584 21.576C59.432 21.576 60.068 21.332 60.492 20.844C60.924 20.356 61.176 19.704 61.248 18.888H58.932V17.964H62.46V22.5H61.368L61.26 21.216C61.068 21.528 60.844 21.792 60.588 22.008C60.34 22.216 60.048 22.376 59.712 22.488C59.376 22.592 58.976 22.644 58.512 22.644ZM64.0401 22.5V14.1H69.3441V15.084H65.2401V17.772H68.9841V18.732H65.2401V21.516H69.3441V22.5H64.0401ZM72.8515 22.5V15.084H70.3675V14.1H76.5475V15.084H74.0515V22.5H72.8515ZM80.833 22.5V14.1H82.033V22.5H80.833ZM85.7422 22.5V15.084H83.2582V14.1H89.4382V15.084H86.9422V22.5H85.7422ZM97.5037 22.644C96.6957 22.644 95.9837 22.464 95.3677 22.104C94.7597 21.736 94.2797 21.228 93.9277 20.58C93.5837 19.924 93.4117 19.164 93.4117 18.3C93.4117 17.444 93.5837 16.692 93.9277 16.044C94.2797 15.388 94.7597 14.876 95.3677 14.508C95.9837 14.14 96.6957 13.956 97.5037 13.956C98.3277 13.956 99.0477 14.14 99.6637 14.508C100.28 14.876 100.756 15.388 101.092 16.044C101.436 16.692 101.608 17.444 101.608 18.3C101.608 19.164 101.436 19.924 101.092 20.58C100.756 21.228 100.28 21.736 99.6637 22.104C99.0477 22.464 98.3277 22.644 97.5037 22.644ZM97.5157 21.576C98.0917 21.576 98.5957 21.444 99.0277 21.18C99.4597 20.916 99.7917 20.54 100.024 20.052C100.264 19.564 100.384 18.98 100.384 18.3C100.384 17.62 100.264 17.036 100.024 16.548C99.7917 16.06 99.4597 15.688 99.0277 15.432C98.5957 15.168 98.0917 15.036 97.5157 15.036C96.9397 15.036 96.4357 15.168 96.0037 15.432C95.5717 15.688 95.2357 16.06 94.9957 16.548C94.7557 17.036 94.6357 17.62 94.6357 18.3C94.6357 18.98 94.7557 19.564 94.9957 20.052C95.2357 20.54 95.5717 20.916 96.0037 21.18C96.4357 21.444 96.9397 21.576 97.5157 21.576ZM103.052 22.5V14.1H104.252L108.536 20.544V14.1H109.736V22.5H108.536L104.252 16.068V22.5H103.052Z" fill="white"/>
<path d="M61.52 46.74C60.2 46.74 59.0467 46.44 58.06 45.84C57.0733 45.24 56.3067 44.4 55.76 43.32C55.2133 42.24 54.94 40.98 54.94 39.54C54.94 38.1133 55.2133 36.8533 55.76 35.76C56.32 34.6667 57.1133 33.8133 58.14 33.2C59.18 32.5733 60.4067 32.26 61.82 32.26C63.4067 32.26 64.7333 32.6467 65.8 33.42C66.8667 34.18 67.5533 35.24 67.86 36.6H65.58C65.38 35.8267 64.96 35.22 64.32 34.78C63.68 34.3267 62.84 34.1 61.8 34.1C60.8133 34.1 59.9533 34.32 59.22 34.76C58.5 35.2 57.9467 35.8267 57.56 36.64C57.1733 37.4533 56.98 38.42 56.98 39.54C56.98 40.6733 57.1733 41.6467 57.56 42.46C57.9467 43.2733 58.4933 43.8933 59.2 44.32C59.9067 44.7467 60.72 44.96 61.64 44.96C63.0533 44.96 64.1133 44.5533 64.82 43.74C65.54 42.9267 65.96 41.84 66.08 40.48H62.22V38.94H68.1V46.5H66.28L66.1 44.36C65.78 44.88 65.4067 45.32 64.98 45.68C64.5667 46.0267 64.08 46.2933 63.52 46.48C62.96 46.6533 62.2933 46.74 61.52 46.74ZM75.2334 46.74C74.2868 46.74 73.4334 46.52 72.6734 46.08C71.9268 45.64 71.3334 45.0267 70.8934 44.24C70.4668 43.44 70.2534 42.52 70.2534 41.48C70.2534 40.4133 70.4734 39.4867 70.9134 38.7C71.3534 37.9 71.9534 37.28 72.7134 36.84C73.4734 36.4 74.3268 36.18 75.2734 36.18C76.2334 36.18 77.0868 36.4 77.8334 36.84C78.5801 37.28 79.1668 37.8933 79.5934 38.68C80.0334 39.4667 80.2534 40.3933 80.2534 41.46C80.2534 42.5267 80.0334 43.4533 79.5934 44.24C79.1668 45.0267 78.5734 45.64 77.8134 46.08C77.0534 46.52 76.1934 46.74 75.2334 46.74ZM75.2334 45.02C75.7801 45.02 76.2734 44.8867 76.7134 44.62C77.1668 44.3533 77.5268 43.96 77.7934 43.44C78.0734 42.9067 78.2134 42.2467 78.2134 41.46C78.2134 40.6733 78.0801 40.02 77.8134 39.5C77.5468 38.9667 77.1868 38.5667 76.7334 38.3C76.2934 38.0333 75.8068 37.9 75.2734 37.9C74.7401 37.9 74.2468 38.0333 73.7934 38.3C73.3401 38.5667 72.9734 38.9667 72.6934 39.5C72.4268 40.02 72.2934 40.6733 72.2934 41.46C72.2934 42.2467 72.4268 42.9067 72.6934 43.44C72.9734 43.96 73.3334 44.3533 73.7734 44.62C74.2268 44.8867 74.7134 45.02 75.2334 45.02ZM87.2061 46.74C86.2594 46.74 85.4061 46.52 84.6461 46.08C83.8994 45.64 83.3061 45.0267 82.8661 44.24C82.4394 43.44 82.2261 42.52 82.2261 41.48C82.2261 40.4133 82.4461 39.4867 82.8861 38.7C83.3261 37.9 83.9261 37.28 84.6861 36.84C85.4461 36.4 86.2994 36.18 87.2461 36.18C88.2061 36.18 89.0594 36.4 89.8061 36.84C90.5528 37.28 91.1394 37.8933 91.5661 38.68C92.0061 39.4667 92.2261 40.3933 92.2261 41.46C92.2261 42.5267 92.0061 43.4533 91.5661 44.24C91.1394 45.0267 90.5461 45.64 89.7861 46.08C89.0261 46.52 88.1661 46.74 87.2061 46.74ZM87.2061 45.02C87.7528 45.02 88.2461 44.8867 88.6861 44.62C89.1394 44.3533 89.4994 43.96 89.7661 43.44C90.0461 42.9067 90.1861 42.2467 90.1861 41.46C90.1861 40.6733 90.0528 40.02 89.7861 39.5C89.5194 38.9667 89.1594 38.5667 88.7061 38.3C88.2661 38.0333 87.7794 37.9 87.2461 37.9C86.7128 37.9 86.2194 38.0333 85.7661 38.3C85.3128 38.5667 84.9461 38.9667 84.6661 39.5C84.3994 40.02 84.2661 40.6733 84.2661 41.46C84.2661 42.2467 84.3994 42.9067 84.6661 43.44C84.9461 43.96 85.3061 44.3533 85.7461 44.62C86.1994 44.8867 86.6861 45.02 87.2061 45.02ZM98.1709 51.14C97.2509 51.14 96.4376 51.02 95.7309 50.78C95.0243 50.5533 94.4776 50.2 94.0909 49.72C93.7043 49.24 93.5109 48.6533 93.5109 47.96C93.5109 47.6 93.5909 47.2333 93.7509 46.86C93.9109 46.5 94.1709 46.1533 94.5309 45.82C94.8909 45.4867 95.3776 45.1867 95.9909 44.92L97.1109 45.82C96.4309 46.0733 95.9709 46.3733 95.7309 46.72C95.5043 47.08 95.3909 47.4267 95.3909 47.76C95.3909 48.16 95.5109 48.4933 95.7509 48.76C95.9909 49.0267 96.3176 49.2267 96.7309 49.36C97.1576 49.4933 97.6376 49.56 98.1709 49.56C98.6909 49.56 99.1443 49.4867 99.5309 49.34C99.9176 49.1933 100.218 48.9867 100.431 48.72C100.644 48.4533 100.751 48.14 100.751 47.78C100.751 47.3533 100.591 46.9933 100.271 46.7C99.9509 46.42 99.3376 46.2533 98.4309 46.2C97.6709 46.1467 97.0243 46.0733 96.4909 45.98C95.9709 45.8867 95.5243 45.7733 95.1509 45.64C94.7909 45.5067 94.4843 45.36 94.2309 45.2C93.9909 45.04 93.7843 44.8733 93.6109 44.7V44.24L95.6109 42.18L97.2309 42.74L95.0509 44.76L95.4709 43.86C95.6176 43.9533 95.7576 44.0467 95.8909 44.14C96.0243 44.22 96.2043 44.2933 96.4309 44.36C96.6576 44.4267 96.9643 44.4867 97.3509 44.54C97.7376 44.5933 98.2443 44.6467 98.8709 44.7C99.7776 44.7667 100.504 44.9267 101.051 45.18C101.611 45.4333 102.018 45.7733 102.271 46.2C102.524 46.6267 102.651 47.1333 102.651 47.72C102.651 48.2933 102.491 48.84 102.171 49.36C101.864 49.88 101.378 50.3067 100.711 50.64C100.058 50.9733 99.2109 51.14 98.1709 51.14ZM98.1709 43.4C97.3176 43.4 96.5909 43.24 95.9909 42.92C95.4043 42.6 94.9509 42.1667 94.6309 41.62C94.3243 41.0733 94.1709 40.4667 94.1709 39.8C94.1709 39.12 94.3243 38.5133 94.6309 37.98C94.9509 37.4333 95.4109 37 96.0109 36.68C96.6109 36.3467 97.3309 36.18 98.1709 36.18C99.0109 36.18 99.7243 36.3467 100.311 36.68C100.911 37 101.364 37.4333 101.671 37.98C101.991 38.5133 102.151 39.12 102.151 39.8C102.151 40.4667 101.991 41.0733 101.671 41.62C101.364 42.1667 100.911 42.6 100.311 42.92C99.7243 43.24 99.0109 43.4 98.1709 43.4ZM98.1709 41.8C98.8243 41.8 99.3443 41.6333 99.7309 41.3C100.118 40.9533 100.311 40.4533 100.311 39.8C100.311 39.1467 100.118 38.6533 99.7309 38.32C99.3443 37.9733 98.8243 37.8 98.1709 37.8C97.5176 37.8 96.9909 37.9733 96.5909 38.32C96.1909 38.6533 95.9909 39.1467 95.9909 39.8C95.9909 40.4533 96.1909 40.9533 96.5909 41.3C96.9909 41.6333 97.5176 41.8 98.1709 41.8ZM99.8109 38L99.3309 36.42H103.471V37.8L99.8109 38ZM105.477 46.5V32.1H107.477V46.5H105.477ZM114.783 46.74C113.823 46.74 112.97 46.52 112.223 46.08C111.477 45.64 110.89 45.0267 110.463 44.24C110.05 43.4533 109.843 42.54 109.843 41.5C109.843 40.4333 110.05 39.5067 110.463 38.72C110.89 37.92 111.477 37.3 112.223 36.86C112.97 36.4067 113.837 36.18 114.823 36.18C115.81 36.18 116.657 36.4 117.363 36.84C118.07 37.28 118.617 37.8667 119.003 38.6C119.39 39.32 119.583 40.12 119.583 41C119.583 41.1333 119.577 41.28 119.563 41.44C119.563 41.5867 119.557 41.7533 119.543 41.94H111.303V40.52H117.583C117.543 39.68 117.263 39.0267 116.743 38.56C116.223 38.08 115.577 37.84 114.803 37.84C114.257 37.84 113.757 37.9667 113.303 38.22C112.85 38.46 112.483 38.82 112.203 39.3C111.937 39.7667 111.803 40.36 111.803 41.08V41.64C111.803 42.3867 111.937 43.02 112.203 43.54C112.483 44.0467 112.85 44.4333 113.303 44.7C113.757 44.9533 114.25 45.08 114.783 45.08C115.423 45.08 115.95 44.94 116.363 44.66C116.777 44.38 117.083 44 117.283 43.52H119.283C119.11 44.1333 118.817 44.6867 118.403 45.18C117.99 45.66 117.477 46.04 116.863 46.32C116.263 46.6 115.57 46.74 114.783 46.74ZM127.023 46.5V32.5H131.803C132.923 32.5 133.843 32.6867 134.563 33.06C135.283 33.4333 135.816 33.9333 136.163 34.56C136.509 35.1867 136.683 35.9 136.683 36.7C136.683 37.46 136.509 38.16 136.163 38.8C135.829 39.4267 135.303 39.9333 134.583 40.32C133.863 40.6933 132.936 40.88 131.803 40.88H129.023V46.5H127.023ZM129.023 39.22H131.723C132.776 39.22 133.523 38.9933 133.963 38.54C134.416 38.0733 134.643 37.46 134.643 36.7C134.643 35.8867 134.416 35.26 133.963 34.82C133.523 34.38 132.776 34.16 131.723 34.16H129.023V39.22ZM138.739 46.5V32.1H140.739V46.5H138.739ZM146.825 46.74C145.998 46.74 145.312 46.6 144.765 46.32C144.218 46.04 143.812 45.6667 143.545 45.2C143.278 44.72 143.145 44.2067 143.145 43.66C143.145 42.9933 143.318 42.4267 143.665 41.96C144.012 41.48 144.505 41.1133 145.145 40.86C145.785 40.6067 146.552 40.48 147.445 40.48H150.065C150.065 39.8933 149.978 39.4067 149.805 39.02C149.632 38.6333 149.372 38.3467 149.025 38.16C148.692 37.96 148.265 37.86 147.745 37.86C147.145 37.86 146.632 38.0067 146.205 38.3C145.778 38.58 145.512 39 145.405 39.56H143.405C143.485 38.8533 143.725 38.2533 144.125 37.76C144.538 37.2533 145.065 36.8667 145.705 36.6C146.345 36.32 147.025 36.18 147.745 36.18C148.692 36.18 149.485 36.3467 150.125 36.68C150.765 37.0133 151.245 37.4867 151.565 38.1C151.898 38.7 152.065 39.42 152.065 40.26V46.5H150.325L150.165 44.8C150.018 45.0667 149.845 45.32 149.645 45.56C149.445 45.8 149.205 46.0067 148.925 46.18C148.658 46.3533 148.345 46.4867 147.985 46.58C147.638 46.6867 147.252 46.74 146.825 46.74ZM147.205 45.12C147.632 45.12 148.018 45.0333 148.365 44.86C148.712 44.6867 149.005 44.4533 149.245 44.16C149.498 43.8533 149.685 43.5133 149.805 43.14C149.938 42.7533 150.012 42.36 150.025 41.96V41.9H147.645C147.072 41.9 146.605 41.9733 146.245 42.12C145.898 42.2533 145.645 42.44 145.485 42.68C145.325 42.92 145.245 43.2 145.245 43.52C145.245 43.8533 145.318 44.14 145.465 44.38C145.625 44.6067 145.852 44.7867 146.145 44.92C146.438 45.0533 146.792 45.12 147.205 45.12ZM155.465 50.9L157.925 45.38H157.345L153.365 36.42H155.525L158.685 43.74L161.865 36.42H163.965L157.565 50.9H155.465Z" fill="white"/>
<defs>
<clipPath id="clip0_2007_457">
<rect width="34" height="34" fill="white" transform="translate(14 14.5)"/>
</clipPath>
</defs>
</svg>
