<svg width="200" height="63" viewBox="0 0 200 63" fill="none" xmlns="http://www.w3.org/2000/svg">
<rect y="0.5" width="200" height="62" rx="10" fill="black"/>
<path d="M43.9957 48.0556C42.0573 49.9554 39.9409 49.6554 37.9036 48.7556C35.7476 47.8357 33.7696 47.7957 31.495 48.7556C28.6467 49.9954 27.1435 49.6354 25.4424 48.0556C15.7899 37.9969 17.214 22.6788 28.172 22.1189C30.8423 22.2589 32.7015 23.5987 34.2641 23.7187C36.5981 23.2388 38.8332 21.8589 41.3255 22.0389C44.3122 22.2789 46.5671 23.4787 48.0506 25.6385C41.8793 29.378 43.343 37.597 49 39.8967C47.8726 42.8963 46.4089 45.8759 43.976 48.0756L43.9957 48.0556ZM34.0663 21.9989C33.7696 17.5395 37.3498 13.86 41.4639 13.5C42.0376 18.6593 36.8355 22.4989 34.0663 21.9989Z" fill="white"/>
<path d="M60.876 22.5V14.1H63.456C64.432 14.1 65.24 14.272 65.88 14.616C66.52 14.96 66.992 15.448 67.296 16.08C67.608 16.704 67.764 17.448 67.764 18.312C67.764 19.176 67.608 19.92 67.296 20.544C66.992 21.168 66.52 21.652 65.88 21.996C65.248 22.332 64.44 22.5 63.456 22.5H60.876ZM62.076 21.492H63.408C64.184 21.492 64.8 21.364 65.256 21.108C65.712 20.852 66.036 20.488 66.228 20.016C66.428 19.536 66.528 18.968 66.528 18.312C66.528 17.648 66.428 17.076 66.228 16.596C66.036 16.116 65.712 15.748 65.256 15.492C64.8 15.236 64.184 15.108 63.408 15.108H62.076V21.492ZM71.908 22.644C71.34 22.644 70.828 22.512 70.372 22.248C69.924 21.984 69.568 21.616 69.304 21.144C69.048 20.664 68.92 20.112 68.92 19.488C68.92 18.848 69.052 18.292 69.316 17.82C69.58 17.34 69.94 16.968 70.396 16.704C70.852 16.44 71.364 16.308 71.932 16.308C72.508 16.308 73.02 16.44 73.468 16.704C73.916 16.968 74.268 17.336 74.524 17.808C74.788 18.28 74.92 18.836 74.92 19.476C74.92 20.116 74.788 20.672 74.524 21.144C74.268 21.616 73.912 21.984 73.456 22.248C73 22.512 72.484 22.644 71.908 22.644ZM71.908 21.612C72.236 21.612 72.532 21.532 72.796 21.372C73.068 21.212 73.284 20.976 73.444 20.664C73.612 20.344 73.696 19.948 73.696 19.476C73.696 19.004 73.616 18.612 73.456 18.3C73.296 17.98 73.08 17.74 72.808 17.58C72.544 17.42 72.252 17.34 71.932 17.34C71.612 17.34 71.316 17.42 71.044 17.58C70.772 17.74 70.552 17.98 70.384 18.3C70.224 18.612 70.144 19.004 70.144 19.476C70.144 19.948 70.224 20.344 70.384 20.664C70.552 20.976 70.768 21.212 71.032 21.372C71.304 21.532 71.596 21.612 71.908 21.612ZM77.3447 22.5L75.5687 16.452H76.7567L78.0767 21.492L77.8487 21.48L79.3127 16.452H80.6567L82.1207 21.48L81.8927 21.492L83.2007 16.452H84.4127L82.6367 22.5H81.4007L79.8647 17.256H80.1047L78.5687 22.5H77.3447ZM85.4957 22.5V16.452H86.5757L86.6477 17.484C86.8397 17.124 87.1117 16.84 87.4637 16.632C87.8157 16.416 88.2197 16.308 88.6757 16.308C89.1557 16.308 89.5677 16.404 89.9117 16.596C90.2557 16.788 90.5237 17.08 90.7157 17.472C90.9077 17.856 91.0037 18.34 91.0037 18.924V22.5H89.8037V19.044C89.8037 18.484 89.6797 18.06 89.4317 17.772C89.1837 17.484 88.8237 17.34 88.3517 17.34C88.0397 17.34 87.7597 17.416 87.5117 17.568C87.2637 17.712 87.0637 17.928 86.9117 18.216C86.7677 18.504 86.6957 18.856 86.6957 19.272V22.5H85.4957ZM92.5387 22.5V13.86H93.7387V22.5H92.5387ZM98.1463 22.644C97.5783 22.644 97.0663 22.512 96.6103 22.248C96.1623 21.984 95.8063 21.616 95.5423 21.144C95.2863 20.664 95.1583 20.112 95.1583 19.488C95.1583 18.848 95.2903 18.292 95.5543 17.82C95.8183 17.34 96.1783 16.968 96.6343 16.704C97.0903 16.44 97.6023 16.308 98.1703 16.308C98.7463 16.308 99.2583 16.44 99.7063 16.704C100.154 16.968 100.506 17.336 100.762 17.808C101.026 18.28 101.158 18.836 101.158 19.476C101.158 20.116 101.026 20.672 100.762 21.144C100.506 21.616 100.15 21.984 99.6943 22.248C99.2383 22.512 98.7223 22.644 98.1463 22.644ZM98.1463 21.612C98.4743 21.612 98.7703 21.532 99.0343 21.372C99.3063 21.212 99.5223 20.976 99.6823 20.664C99.8503 20.344 99.9343 19.948 99.9343 19.476C99.9343 19.004 99.8543 18.612 99.6943 18.3C99.5343 17.98 99.3183 17.74 99.0463 17.58C98.7823 17.42 98.4903 17.34 98.1703 17.34C97.8503 17.34 97.5543 17.42 97.2823 17.58C97.0103 17.74 96.7903 17.98 96.6223 18.3C96.4623 18.612 96.3823 19.004 96.3823 19.476C96.3823 19.948 96.4623 20.344 96.6223 20.664C96.7903 20.976 97.0063 21.212 97.2703 21.372C97.5423 21.532 97.8343 21.612 98.1463 21.612ZM104.574 22.644C104.078 22.644 103.666 22.56 103.338 22.392C103.01 22.224 102.766 22 102.606 21.72C102.446 21.432 102.366 21.124 102.366 20.796C102.366 20.396 102.47 20.056 102.678 19.776C102.886 19.488 103.182 19.268 103.566 19.116C103.95 18.964 104.41 18.888 104.946 18.888H106.518C106.518 18.536 106.466 18.244 106.362 18.012C106.258 17.78 106.102 17.608 105.894 17.496C105.694 17.376 105.438 17.316 105.126 17.316C104.766 17.316 104.458 17.404 104.202 17.58C103.946 17.748 103.786 18 103.722 18.336H102.522C102.57 17.912 102.714 17.552 102.954 17.256C103.202 16.952 103.518 16.72 103.902 16.56C104.286 16.392 104.694 16.308 105.126 16.308C105.694 16.308 106.17 16.408 106.554 16.608C106.938 16.808 107.226 17.092 107.418 17.46C107.618 17.82 107.718 18.252 107.718 18.756V22.5H106.674L106.578 21.48C106.49 21.64 106.386 21.792 106.266 21.936C106.146 22.08 106.002 22.204 105.834 22.308C105.674 22.412 105.486 22.492 105.27 22.548C105.062 22.612 104.83 22.644 104.574 22.644ZM104.802 21.672C105.058 21.672 105.29 21.62 105.498 21.516C105.706 21.412 105.882 21.272 106.026 21.096C106.178 20.912 106.29 20.708 106.362 20.484C106.442 20.252 106.486 20.016 106.494 19.776V19.74H105.066C104.722 19.74 104.442 19.784 104.226 19.872C104.018 19.952 103.866 20.064 103.77 20.208C103.674 20.352 103.626 20.52 103.626 20.712C103.626 20.912 103.67 21.084 103.758 21.228C103.854 21.364 103.99 21.472 104.166 21.552C104.342 21.632 104.554 21.672 104.802 21.672ZM111.938 22.644C111.362 22.644 110.854 22.508 110.414 22.236C109.974 21.956 109.63 21.58 109.382 21.108C109.142 20.628 109.022 20.084 109.022 19.476C109.022 18.86 109.142 18.316 109.382 17.844C109.63 17.372 109.974 17 110.414 16.728C110.862 16.448 111.374 16.308 111.95 16.308C112.422 16.308 112.838 16.404 113.198 16.596C113.558 16.78 113.838 17.044 114.038 17.388V13.86H115.238V22.5H114.158L114.038 21.564C113.918 21.748 113.762 21.924 113.57 22.092C113.378 22.252 113.146 22.384 112.874 22.488C112.602 22.592 112.29 22.644 111.938 22.644ZM112.13 21.6C112.506 21.6 112.838 21.512 113.126 21.336C113.414 21.16 113.634 20.912 113.786 20.592C113.946 20.272 114.026 19.9 114.026 19.476C114.026 19.052 113.946 18.684 113.786 18.372C113.634 18.052 113.414 17.804 113.126 17.628C112.838 17.444 112.506 17.352 112.13 17.352C111.77 17.352 111.446 17.444 111.158 17.628C110.87 17.804 110.646 18.052 110.486 18.372C110.326 18.684 110.246 19.052 110.246 19.476C110.246 19.9 110.326 20.272 110.486 20.592C110.646 20.912 110.87 21.16 111.158 21.336C111.446 21.512 111.77 21.6 112.13 21.6ZM122.709 22.644C122.141 22.644 121.629 22.512 121.173 22.248C120.725 21.984 120.369 21.616 120.105 21.144C119.849 20.664 119.721 20.112 119.721 19.488C119.721 18.848 119.853 18.292 120.117 17.82C120.381 17.34 120.741 16.968 121.197 16.704C121.653 16.44 122.165 16.308 122.733 16.308C123.309 16.308 123.821 16.44 124.269 16.704C124.717 16.968 125.069 17.336 125.325 17.808C125.589 18.28 125.721 18.836 125.721 19.476C125.721 20.116 125.589 20.672 125.325 21.144C125.069 21.616 124.713 21.984 124.257 22.248C123.801 22.512 123.285 22.644 122.709 22.644ZM122.709 21.612C123.037 21.612 123.333 21.532 123.597 21.372C123.869 21.212 124.085 20.976 124.245 20.664C124.413 20.344 124.497 19.948 124.497 19.476C124.497 19.004 124.417 18.612 124.257 18.3C124.097 17.98 123.881 17.74 123.609 17.58C123.345 17.42 123.053 17.34 122.733 17.34C122.413 17.34 122.117 17.42 121.845 17.58C121.573 17.74 121.353 17.98 121.185 18.3C121.025 18.612 120.945 19.004 120.945 19.476C120.945 19.948 121.025 20.344 121.185 20.664C121.353 20.976 121.569 21.212 121.833 21.372C122.105 21.532 122.397 21.612 122.709 21.612ZM127.132 22.5V16.452H128.212L128.284 17.484C128.476 17.124 128.748 16.84 129.1 16.632C129.452 16.416 129.856 16.308 130.312 16.308C130.792 16.308 131.204 16.404 131.548 16.596C131.892 16.788 132.16 17.08 132.352 17.472C132.544 17.856 132.64 18.34 132.64 18.924V22.5H131.44V19.044C131.44 18.484 131.316 18.06 131.068 17.772C130.82 17.484 130.46 17.34 129.988 17.34C129.676 17.34 129.396 17.416 129.148 17.568C128.9 17.712 128.7 17.928 128.548 18.216C128.404 18.504 128.332 18.856 128.332 19.272V22.5H127.132ZM139.742 22.5C139.358 22.5 139.026 22.44 138.746 22.32C138.466 22.2 138.25 22 138.098 21.72C137.946 21.44 137.87 21.06 137.87 20.58V17.472H136.826V16.452H137.87L138.014 14.94H139.07V16.452H140.786V17.472H139.07V20.592C139.07 20.936 139.142 21.172 139.286 21.3C139.43 21.42 139.678 21.48 140.03 21.48H140.726V22.5H139.742ZM142.109 22.5V13.86H143.309V17.436C143.509 17.084 143.785 16.808 144.137 16.608C144.497 16.408 144.893 16.308 145.325 16.308C145.805 16.308 146.217 16.408 146.561 16.608C146.905 16.8 147.169 17.092 147.353 17.484C147.537 17.868 147.629 18.352 147.629 18.936V22.5H146.441V19.056C146.441 18.496 146.321 18.072 146.081 17.784C145.841 17.488 145.485 17.34 145.013 17.34C144.693 17.34 144.405 17.416 144.149 17.568C143.893 17.72 143.689 17.944 143.537 18.24C143.385 18.528 143.309 18.88 143.309 19.296V22.5H142.109ZM151.9 22.644C151.324 22.644 150.812 22.512 150.364 22.248C149.916 21.984 149.564 21.616 149.308 21.144C149.06 20.672 148.936 20.124 148.936 19.5C148.936 18.86 149.06 18.304 149.308 17.832C149.564 17.352 149.916 16.98 150.364 16.716C150.812 16.444 151.332 16.308 151.924 16.308C152.516 16.308 153.024 16.44 153.448 16.704C153.872 16.968 154.2 17.32 154.432 17.76C154.664 18.192 154.78 18.672 154.78 19.2C154.78 19.28 154.776 19.368 154.768 19.464C154.768 19.552 154.764 19.652 154.756 19.764H149.812V18.912H153.58C153.556 18.408 153.388 18.016 153.076 17.736C152.764 17.448 152.376 17.304 151.912 17.304C151.584 17.304 151.284 17.38 151.012 17.532C150.74 17.676 150.52 17.892 150.352 18.18C150.192 18.46 150.112 18.816 150.112 19.248V19.584C150.112 20.032 150.192 20.412 150.352 20.724C150.52 21.028 150.74 21.26 151.012 21.42C151.284 21.572 151.58 21.648 151.9 21.648C152.284 21.648 152.6 21.564 152.848 21.396C153.096 21.228 153.28 21 153.4 20.712H154.6C154.496 21.08 154.32 21.412 154.072 21.708C153.824 21.996 153.516 22.224 153.148 22.392C152.788 22.56 152.372 22.644 151.9 22.644Z" fill="white"/>
<path d="M60.56 46.5L65.7 32.5H67.88L73.02 46.5H70.88L66.78 34.9L62.66 46.5H60.56ZM62.88 43.04L63.44 41.44H70.02L70.58 43.04H62.88ZM74.9147 50.9V36.42H76.7147L76.9147 37.98C77.128 37.6733 77.3947 37.3867 77.7147 37.12C78.0347 36.84 78.4147 36.6133 78.8547 36.44C79.308 36.2667 79.8347 36.18 80.4347 36.18C81.3947 36.18 82.2347 36.4133 82.9547 36.88C83.688 37.3467 84.2547 37.98 84.6547 38.78C85.068 39.5667 85.2747 40.4667 85.2747 41.48C85.2747 42.4933 85.068 43.4 84.6547 44.2C84.2414 44.9867 83.668 45.6067 82.9347 46.06C82.2147 46.5133 81.3747 46.74 80.4147 46.74C79.628 46.74 78.9347 46.5867 78.3347 46.28C77.7347 45.96 77.2614 45.52 76.9147 44.96V50.9H74.9147ZM80.0947 45C80.708 45 81.248 44.8533 81.7147 44.56C82.1947 44.2667 82.568 43.8533 82.8347 43.32C83.1147 42.7867 83.2547 42.1667 83.2547 41.46C83.2547 40.7533 83.1147 40.14 82.8347 39.62C82.568 39.0867 82.1947 38.6733 81.7147 38.38C81.248 38.0733 80.708 37.92 80.0947 37.92C79.468 37.92 78.9147 38.0733 78.4347 38.38C77.968 38.6733 77.6014 39.0867 77.3347 39.62C77.068 40.14 76.9347 40.7533 76.9347 41.46C76.9347 42.1667 77.068 42.7867 77.3347 43.32C77.6014 43.8533 77.968 44.2667 78.4347 44.56C78.9147 44.8533 79.468 45 80.0947 45ZM87.61 50.9V36.42H89.41L89.61 37.98C89.8233 37.6733 90.09 37.3867 90.41 37.12C90.73 36.84 91.11 36.6133 91.55 36.44C92.0033 36.2667 92.53 36.18 93.13 36.18C94.09 36.18 94.93 36.4133 95.65 36.88C96.3833 37.3467 96.95 37.98 97.35 38.78C97.7633 39.5667 97.97 40.4667 97.97 41.48C97.97 42.4933 97.7633 43.4 97.35 44.2C96.9367 44.9867 96.3633 45.6067 95.63 46.06C94.91 46.5133 94.07 46.74 93.11 46.74C92.3233 46.74 91.63 46.5867 91.03 46.28C90.43 45.96 89.9567 45.52 89.61 44.96V50.9H87.61ZM92.79 45C93.4033 45 93.9433 44.8533 94.41 44.56C94.89 44.2667 95.2633 43.8533 95.53 43.32C95.81 42.7867 95.95 42.1667 95.95 41.46C95.95 40.7533 95.81 40.14 95.53 39.62C95.2633 39.0867 94.89 38.6733 94.41 38.38C93.9433 38.0733 93.4033 37.92 92.79 37.92C92.1633 37.92 91.61 38.0733 91.13 38.38C90.6633 38.6733 90.2967 39.0867 90.03 39.62C89.7633 40.14 89.63 40.7533 89.63 41.46C89.63 42.1667 89.7633 42.7867 90.03 43.32C90.2967 43.8533 90.6633 44.2667 91.13 44.56C91.61 44.8533 92.1633 45 92.79 45ZM110.103 46.74C109.076 46.74 108.176 46.56 107.403 46.2C106.629 45.8267 106.029 45.3067 105.603 44.64C105.176 43.9733 104.963 43.1933 104.963 42.3H107.063C107.076 42.8067 107.196 43.2733 107.423 43.7C107.663 44.1133 108.003 44.4467 108.443 44.7C108.896 44.94 109.449 45.06 110.103 45.06C110.663 45.06 111.143 44.9667 111.543 44.78C111.956 44.5933 112.269 44.34 112.483 44.02C112.696 43.6867 112.803 43.3067 112.803 42.88C112.803 42.3867 112.689 41.98 112.463 41.66C112.236 41.34 111.929 41.08 111.543 40.88C111.169 40.6667 110.729 40.48 110.223 40.32C109.729 40.16 109.209 39.9867 108.663 39.8C107.556 39.44 106.729 38.9733 106.183 38.4C105.649 37.8267 105.382 37.08 105.382 36.16C105.382 35.3733 105.569 34.6933 105.943 34.12C106.316 33.5333 106.836 33.08 107.503 32.76C108.183 32.4267 108.983 32.26 109.903 32.26C110.809 32.26 111.603 32.4267 112.283 32.76C112.963 33.0933 113.496 33.5533 113.883 34.14C114.269 34.7267 114.463 35.4133 114.463 36.2H112.343C112.343 35.84 112.249 35.4867 112.063 35.14C111.876 34.7933 111.596 34.5133 111.223 34.3C110.849 34.0733 110.389 33.96 109.843 33.96C109.389 33.9467 108.983 34.02 108.623 34.18C108.263 34.34 107.983 34.5733 107.783 34.88C107.583 35.1867 107.483 35.5533 107.483 35.98C107.483 36.4067 107.569 36.7533 107.743 37.02C107.929 37.2733 108.196 37.4933 108.543 37.68C108.889 37.8667 109.289 38.04 109.743 38.2C110.209 38.3467 110.723 38.5133 111.283 38.7C111.976 38.9267 112.589 39.2067 113.123 39.54C113.669 39.86 114.096 40.28 114.403 40.8C114.723 41.3067 114.883 41.96 114.883 42.76C114.883 43.4533 114.703 44.1 114.342 44.7C113.983 45.3 113.449 45.7933 112.743 46.18C112.036 46.5533 111.156 46.74 110.103 46.74ZM121.321 46.5C120.681 46.5 120.127 46.4 119.661 46.2C119.194 46 118.834 45.6667 118.581 45.2C118.327 44.7333 118.201 44.1 118.201 43.3V38.12H116.461V36.42H118.201L118.441 33.9H120.201V36.42H123.061V38.12H120.201V43.32C120.201 43.8933 120.321 44.2867 120.561 44.5C120.801 44.7 121.214 44.8 121.801 44.8H122.961V46.5H121.321ZM129.593 46.74C128.646 46.74 127.793 46.52 127.033 46.08C126.286 45.64 125.693 45.0267 125.253 44.24C124.826 43.44 124.613 42.52 124.613 41.48C124.613 40.4133 124.833 39.4867 125.273 38.7C125.713 37.9 126.313 37.28 127.073 36.84C127.833 36.4 128.686 36.18 129.633 36.18C130.593 36.18 131.446 36.4 132.193 36.84C132.939 37.28 133.526 37.8933 133.953 38.68C134.393 39.4667 134.613 40.3933 134.613 41.46C134.613 42.5267 134.393 43.4533 133.953 44.24C133.526 45.0267 132.933 45.64 132.173 46.08C131.413 46.52 130.553 46.74 129.593 46.74ZM129.593 45.02C130.139 45.02 130.633 44.8867 131.073 44.62C131.526 44.3533 131.886 43.96 132.153 43.44C132.433 42.9067 132.573 42.2467 132.573 41.46C132.573 40.6733 132.439 40.02 132.173 39.5C131.906 38.9667 131.546 38.5667 131.093 38.3C130.653 38.0333 130.166 37.9 129.633 37.9C129.099 37.9 128.606 38.0333 128.153 38.3C127.699 38.5667 127.333 38.9667 127.053 39.5C126.786 40.02 126.653 40.6733 126.653 41.46C126.653 42.2467 126.786 42.9067 127.053 43.44C127.333 43.96 127.693 44.3533 128.133 44.62C128.586 44.8867 129.073 45.02 129.593 45.02ZM136.965 46.5V36.42H138.765L138.945 38.32C139.172 37.8667 139.465 37.4867 139.825 37.18C140.185 36.86 140.605 36.6133 141.085 36.44C141.579 36.2667 142.139 36.18 142.765 36.18V38.3H142.045C141.632 38.3 141.239 38.3533 140.865 38.46C140.492 38.5533 140.159 38.72 139.865 38.96C139.585 39.2 139.365 39.5267 139.205 39.94C139.045 40.3533 138.965 40.8667 138.965 41.48V46.5H136.965ZM148.869 46.74C147.909 46.74 147.056 46.52 146.309 46.08C145.563 45.64 144.976 45.0267 144.549 44.24C144.136 43.4533 143.929 42.54 143.929 41.5C143.929 40.4333 144.136 39.5067 144.549 38.72C144.976 37.92 145.563 37.3 146.309 36.86C147.056 36.4067 147.923 36.18 148.909 36.18C149.896 36.18 150.743 36.4 151.449 36.84C152.156 37.28 152.703 37.8667 153.089 38.6C153.476 39.32 153.669 40.12 153.669 41C153.669 41.1333 153.663 41.28 153.649 41.44C153.649 41.5867 153.643 41.7533 153.629 41.94H145.389V40.52H151.669C151.629 39.68 151.349 39.0267 150.829 38.56C150.309 38.08 149.663 37.84 148.889 37.84C148.343 37.84 147.843 37.9667 147.389 38.22C146.936 38.46 146.569 38.82 146.289 39.3C146.023 39.7667 145.889 40.36 145.889 41.08V41.64C145.889 42.3867 146.023 43.02 146.289 43.54C146.569 44.0467 146.936 44.4333 147.389 44.7C147.843 44.9533 148.336 45.08 148.869 45.08C149.509 45.08 150.036 44.94 150.449 44.66C150.863 44.38 151.169 44 151.369 43.52H153.369C153.196 44.1333 152.903 44.6867 152.489 45.18C152.076 45.66 151.563 46.04 150.949 46.32C150.349 46.6 149.656 46.74 148.869 46.74Z" fill="white"/>
</svg>
