<svg width="462" height="139" viewBox="0 0 462 139" fill="none" xmlns="http://www.w3.org/2000/svg">
<ellipse cx="164.768" cy="68.2105" rx="44.7949" ry="43.7769" fill="#004FB8"/>
<ellipse cx="186.148" cy="11.1987" rx="11.1987" ry="11.1987" fill="#004FB8"/>
<path d="M462 69.5706C462 73.01 461.384 76.2202 460.152 79.201C458.919 82.1532 457.243 84.7184 455.122 86.8967C453.001 89.0464 450.507 90.7517 447.641 92.0129C444.803 93.2453 441.751 93.8615 438.483 93.8615C435.245 93.8615 432.192 93.2453 429.326 92.0129C426.488 90.7517 423.995 89.0464 421.845 86.8967C419.724 84.7184 418.047 82.1532 416.815 79.201C415.583 76.2202 414.966 73.01 414.966 69.5706C414.966 66.0739 415.583 62.8351 416.815 59.8543C418.047 56.8734 419.724 54.3082 421.845 52.1585C423.995 49.9802 426.488 48.2749 429.326 47.0424C432.192 45.8099 435.245 45.1937 438.483 45.1937C441.751 45.1937 444.803 45.7813 447.641 46.9564C450.507 48.1029 453.001 49.751 455.122 51.9006C457.243 54.0216 458.919 56.5868 460.152 59.5963C461.384 62.5771 462 65.9019 462 69.5706ZM450.177 69.5706C450.177 67.6789 449.862 65.9736 449.232 64.4545C448.63 62.9067 447.798 61.5883 446.738 60.4991C445.677 59.3813 444.431 58.5358 442.998 57.9626C441.593 57.3607 440.088 57.0597 438.483 57.0597C436.878 57.0597 435.359 57.3607 433.926 57.9626C432.522 58.5358 431.289 59.3813 430.229 60.4991C429.197 61.5883 428.38 62.9067 427.778 64.4545C427.176 65.9736 426.875 67.6789 426.875 69.5706C426.875 71.3477 427.176 72.9957 427.778 74.5148C428.38 76.0339 429.197 77.3523 430.229 78.4701C431.289 79.5879 432.522 80.4765 433.926 81.1357C435.359 81.7662 436.878 82.0815 438.483 82.0815C440.088 82.0815 441.593 81.7806 442.998 81.1787C444.431 80.5768 445.677 79.7313 446.738 78.6421C447.798 77.5529 448.63 76.2345 449.232 74.6868C449.862 73.139 450.177 71.4336 450.177 69.5706Z" fill="#004FB8"/>
<path d="M410.538 34.4455C410.538 35.5347 410.324 36.5522 409.894 37.498C409.492 38.4439 408.933 39.2751 408.217 39.9916C407.5 40.6795 406.655 41.2384 405.68 41.6683C404.734 42.0696 403.717 42.2702 402.628 42.2702C401.539 42.2702 400.507 42.0696 399.532 41.6683C398.586 41.2384 397.755 40.6795 397.039 39.9916C396.351 39.2751 395.792 38.4439 395.362 37.498C394.961 36.5522 394.76 35.5347 394.76 34.4455C394.76 33.3851 394.961 32.3819 395.362 31.436C395.792 30.4615 396.351 29.6304 397.039 28.9425C397.755 28.2259 398.586 27.667 399.532 27.2657C400.507 26.8358 401.539 26.6209 402.628 26.6209C403.717 26.6209 404.734 26.8358 405.68 27.2657C406.655 27.667 407.5 28.2259 408.217 28.9425C408.933 29.6304 409.492 30.4615 409.894 31.436C410.324 32.3819 410.538 33.3851 410.538 34.4455ZM408.518 93.0017H396.695V46.9564H408.518V93.0017Z" fill="#004FB8"/>
<path d="M387.922 88.6164C387.922 89.6483 387.736 90.6228 387.363 91.5399C386.991 92.4285 386.475 93.2023 385.816 93.8615C385.157 94.5208 384.383 95.0367 383.494 95.4093C382.606 95.8106 381.645 96.0112 380.614 96.0112C379.61 96.0112 378.65 95.8106 377.733 95.4093C376.845 95.0367 376.056 94.5208 375.369 93.8615C374.709 93.2023 374.179 92.4285 373.778 91.5399C373.405 90.6228 373.219 89.6483 373.219 88.6164C373.219 87.6133 373.405 86.6674 373.778 85.7789C374.179 84.8904 374.709 84.1165 375.369 83.4573C376.056 82.7981 376.845 82.2822 377.733 81.9096C378.65 81.5083 379.61 81.3077 380.614 81.3077C381.645 81.3077 382.606 81.5083 383.494 81.9096C384.383 82.2822 385.157 82.7981 385.816 83.4573C386.475 84.1165 386.991 84.8904 387.363 85.7789C387.736 86.6674 387.922 87.6133 387.922 88.6164Z" fill="black"/>
<path d="M335.686 93.0017H323.949V46.9564H326.787L330.656 51.4277C332.548 49.708 334.683 48.3895 337.062 47.4724C339.47 46.5265 341.978 46.0536 344.586 46.0536C347.395 46.0536 350.046 46.5982 352.539 47.6873C355.033 48.7478 357.211 50.2239 359.074 52.1156C360.937 53.9786 362.399 56.1712 363.46 58.6935C364.549 61.1871 365.093 63.8526 365.093 66.6901V93.0017H353.356V66.6901C353.356 65.4863 353.127 64.3542 352.668 63.2937C352.21 62.2045 351.579 61.2587 350.777 60.4562C349.974 59.6536 349.043 59.0231 347.982 58.5645C346.922 58.1059 345.79 57.8766 344.586 57.8766C343.353 57.8766 342.193 58.1059 341.103 58.5645C340.014 59.0231 339.068 59.6536 338.266 60.4562C337.463 61.2587 336.833 62.2045 336.374 63.2937C335.916 64.3542 335.686 65.4863 335.686 66.6901V93.0017Z" fill="black"/>
<path d="M296.006 81.7376C296.465 81.8809 296.923 81.9812 297.382 82.0385C297.841 82.0672 298.299 82.0815 298.758 82.0815C299.904 82.0815 301.008 81.9239 302.068 81.6086C303.129 81.2933 304.118 80.8491 305.035 80.2758C305.981 79.6739 306.812 78.9574 307.528 78.1262C308.274 77.2663 308.875 76.3205 309.334 75.2887L317.933 83.9302C316.843 85.478 315.582 86.868 314.149 88.1005C312.745 89.333 311.211 90.3791 309.549 91.239C307.915 92.0988 306.181 92.7437 304.347 93.1737C302.541 93.6322 300.678 93.8615 298.758 93.8615C295.519 93.8615 292.467 93.2596 289.6 92.0558C286.763 90.852 284.269 89.1753 282.12 87.0257C279.999 84.8761 278.322 82.3251 277.09 79.373C275.857 76.3921 275.241 73.1247 275.241 69.5706C275.241 65.9306 275.857 62.6058 277.09 59.5963C278.322 56.5868 279.999 54.0216 282.12 51.9006C284.269 49.7796 286.763 48.1316 289.6 46.9564C292.467 45.7813 295.519 45.1937 298.758 45.1937C300.678 45.1937 302.556 45.423 304.39 45.8816C306.224 46.3402 307.958 46.9994 309.592 47.8593C311.254 48.7191 312.802 49.7796 314.235 51.0407C315.668 52.2732 316.929 53.6633 318.019 55.211L296.006 81.7376ZM302.025 57.5326C301.481 57.332 300.936 57.203 300.392 57.1457C299.876 57.0884 299.331 57.0597 298.758 57.0597C297.153 57.0597 295.634 57.3607 294.201 57.9626C292.796 58.5358 291.564 59.367 290.503 60.4562C289.471 61.5453 288.655 62.8638 288.053 64.4115C287.451 65.9306 287.15 67.6503 287.15 69.5706C287.15 70.0006 287.164 70.4878 287.193 71.0324C287.25 71.577 287.322 72.1359 287.408 72.7091C287.522 73.2537 287.651 73.7839 287.795 74.2998C287.938 74.8157 288.124 75.2743 288.354 75.6756L302.025 57.5326Z" fill="black"/>
<path d="M271.844 93.0016H233.451L252.841 58.7364H233.451V47.0424H271.844L252.454 81.3076H271.844V93.0016Z" fill="black"/>
<path d="M211.981 28.1415V46.5429H229.779V59.2362H211.981V72.4081C211.981 73.5752 212.197 74.6685 212.627 75.6923L212.798 76.0624C213.213 76.9133 213.751 77.6695 214.413 78.3319C215.17 79.0886 216.064 79.6985 217.1 80.162C218.123 80.5914 219.214 80.8075 220.38 80.8075H229.779V93.5019H220.38C217.478 93.5019 214.746 92.959 212.188 91.871L212.184 91.8691C209.636 90.756 207.391 89.2458 205.454 87.3388L205.449 87.3339C203.542 85.3976 202.032 83.1535 200.919 80.6054L200.917 80.6005C199.829 78.0421 199.286 75.3097 199.286 72.4081V59.2362H193.568V46.5429H199.286V28.1415H211.981Z" fill="black" stroke="white"/>
<path d="M157.354 93.0017H145.617V46.9564H148.454L152.324 51.4277C154.215 49.708 156.351 48.3895 158.73 47.4724C161.137 46.5265 163.645 46.0536 166.253 46.0536C169.062 46.0536 171.714 46.5982 174.207 47.6873C176.701 48.7478 178.879 50.2239 180.742 52.1156C182.605 53.9786 184.067 56.1712 185.127 58.6935C186.216 61.1871 186.761 63.8526 186.761 66.6901V93.0017H175.024V66.6901C175.024 65.4863 174.795 64.3542 174.336 63.2937C173.877 62.2045 173.247 61.2587 172.444 60.4562C171.642 59.6536 170.71 59.0231 169.65 58.5645C168.589 58.1059 167.457 57.8766 166.253 57.8766C165.021 57.8766 163.86 58.1059 162.771 58.5645C161.682 59.0231 160.736 59.6536 159.934 60.4562C159.131 61.2587 158.5 62.2045 158.042 63.2937C157.583 64.3542 157.354 65.4863 157.354 66.6901V93.0017Z" fill="#F5F5F5"/>
<path d="M114.92 44.6937C116.88 44.6937 118.799 44.9282 120.674 45.3968C122.546 45.8649 124.317 46.5376 125.987 47.4164H125.986C127.683 48.2941 129.261 49.3764 130.722 50.6615H130.723C132.188 51.9209 133.477 53.3418 134.59 54.9232L134.809 55.2357L134.565 55.5306L113.056 81.4496C113.235 81.4862 113.413 81.5168 113.591 81.5394C114.034 81.5668 114.477 81.5814 114.92 81.5814C116.02 81.5814 117.075 81.4302 118.088 81.1293C119.105 80.8269 120.051 80.4017 120.928 79.8539C121.834 79.2777 122.628 78.5935 123.312 77.8002V77.7992H123.313C124.026 76.9764 124.601 76.0717 125.04 75.0853L125.336 74.4183L125.85 74.9359L134.449 83.5775L134.745 83.8754L134.504 84.2181C133.391 85.7995 132.102 87.2205 130.637 88.4799L130.636 88.4789C129.203 89.7366 127.638 90.8054 125.941 91.683L125.94 91.682C124.272 92.5598 122.502 93.2185 120.632 93.6576C118.785 94.1266 116.88 94.3617 114.92 94.3617C111.617 94.3616 108.499 93.7475 105.569 92.517L105.567 92.516C102.671 91.2875 100.124 89.5749 97.9285 87.3793L97.9255 87.3773C95.757 85.1795 94.0464 82.5734 92.7908 79.5658L92.7898 79.5638C91.5299 76.5166 90.9031 73.1835 90.9031 69.5707C90.9031 65.8734 91.529 62.483 92.7888 59.4066C94.0443 56.341 95.7568 53.7189 97.9285 51.5472L97.9304 51.5443C100.127 49.3773 102.675 47.6939 105.571 46.4945L105.573 46.4935C108.502 45.2927 111.619 44.6938 114.92 44.6937ZM114.92 57.5599C113.379 57.56 111.926 57.848 110.556 58.4232L110.552 58.4252C109.211 58.9723 108.037 59.7652 107.024 60.805C106.044 61.8415 105.26 63.1016 104.68 64.5931L104.679 64.5961C104.105 66.0471 103.812 67.7027 103.812 69.5707C103.812 69.9858 103.826 70.4589 103.853 70.9906C103.909 71.5177 103.978 72.059 104.061 72.6146C104.173 73.1462 104.299 73.6637 104.438 74.1664C104.491 74.3572 104.553 74.537 104.618 74.7084L117.359 57.7992C117.072 57.726 116.787 57.6729 116.502 57.6429H116.499C116.003 57.5878 115.476 57.5599 114.92 57.5599Z" fill="black" stroke="white"/>
<path d="M61.4362 93.0016L43.8951 46.9564H57.2659L67.3262 75.6756L77.3435 46.9564H90.7573L73.2162 93.0016H61.4362Z" fill="black"/>
<path d="M42.2619 93.0017H0V31.35H42.2619V43.689H12.3389V56.0279H32.5885V68.3668H12.3389V80.6627H42.2619V93.0017Z" fill="black"/>
<path d="M232.133 116.807H230.923V106.58H234.218C234.719 106.58 235.172 106.633 235.578 106.737C235.984 106.842 236.344 107.002 236.658 107.216C236.973 107.43 237.216 107.717 237.39 108.077C237.563 108.437 237.649 108.856 237.649 109.335C237.649 109.731 237.613 110.087 237.54 110.401C237.467 110.711 237.342 111.003 237.164 111.276C236.986 111.55 236.754 111.778 236.467 111.96C236.18 112.138 235.81 112.279 235.359 112.384C234.913 112.484 234.393 112.534 233.801 112.534C233.331 112.534 232.775 112.505 232.133 112.445V116.807ZM233.917 111.488C234.363 111.488 234.746 111.445 235.065 111.358C235.384 111.272 235.628 111.165 235.797 111.037C235.97 110.91 236.104 110.743 236.2 110.538C236.3 110.333 236.362 110.146 236.385 109.978C236.407 109.804 236.419 109.597 236.419 109.356C236.419 108.777 236.223 108.351 235.831 108.077C235.444 107.804 234.915 107.667 234.245 107.667H232.133V111.475C233.012 111.484 233.607 111.488 233.917 111.488ZM239.598 113.074C239.598 113.963 239.793 114.676 240.185 115.214C240.582 115.747 241.158 116.014 241.915 116.014C242.662 116.014 243.225 115.747 243.603 115.214C243.986 114.681 244.178 113.963 244.178 113.061C244.178 112.145 243.988 111.425 243.61 110.9C243.237 110.372 242.665 110.107 241.894 110.107C241.147 110.107 240.577 110.376 240.185 110.914C239.793 111.452 239.598 112.172 239.598 113.074ZM245.36 113.054C245.36 114.216 245.05 115.159 244.431 115.884C243.811 116.604 242.954 116.964 241.86 116.964C240.807 116.964 239.969 116.599 239.345 115.87C238.725 115.141 238.415 114.204 238.415 113.061C238.415 111.894 238.727 110.951 239.351 110.231C239.976 109.51 240.833 109.15 241.922 109.15C242.993 109.15 243.834 109.513 244.444 110.237C245.055 110.957 245.36 111.896 245.36 113.054ZM253.399 116.807C252.347 113.443 251.695 111.349 251.444 110.524C251.303 111.026 251.141 111.568 250.959 112.151C250.777 112.735 250.617 113.236 250.48 113.655C250.344 114.075 250.166 114.617 249.947 115.282C249.728 115.948 249.562 116.456 249.448 116.807H248.218L246.078 109.308H247.261L248.867 115.446C249.09 114.717 249.747 112.671 250.836 109.308H252.128C253.212 112.744 253.85 114.783 254.042 115.426L255.628 109.308H256.797L254.637 116.807H253.399ZM262.156 110.695C261.823 110.294 261.365 110.094 260.782 110.094C260.199 110.094 259.723 110.301 259.353 110.716C258.984 111.126 258.768 111.689 258.704 112.404H262.662C262.662 111.662 262.493 111.092 262.156 110.695ZM261.008 116.964C259.918 116.964 259.059 116.618 258.431 115.925C257.806 115.232 257.494 114.284 257.494 113.081C257.494 111.919 257.797 110.978 258.403 110.258C259.009 109.533 259.807 109.164 260.796 109.15C261.725 109.15 262.461 109.469 263.004 110.107C263.551 110.741 263.824 111.589 263.824 112.65C263.824 112.705 263.822 112.805 263.817 112.951C263.817 113.097 263.817 113.202 263.817 113.266H258.67C258.683 114.118 258.902 114.783 259.326 115.262C259.754 115.736 260.329 115.973 261.049 115.973C261.842 115.973 262.637 115.763 263.434 115.344L263.612 116.267C262.851 116.731 261.983 116.964 261.008 116.964ZM268.773 109.239C268.978 109.239 269.165 109.253 269.334 109.28L269.293 110.333C269.083 110.297 268.901 110.278 268.746 110.278C268.108 110.278 267.588 110.502 267.187 110.948C266.791 111.39 266.593 111.94 266.593 112.596V116.807H265.451C265.446 112.204 265.444 109.704 265.444 109.308H266.394L266.504 110.654C266.764 110.231 267.094 109.889 267.495 109.629C267.896 109.369 268.322 109.239 268.773 109.239ZM271.856 109.308V116.807H270.708V109.308H271.856ZM271.856 106.58V107.934H270.708V106.58H271.856ZM274.01 116.807V109.308H274.967L275.11 110.381C275.406 110.012 275.776 109.716 276.218 109.492C276.664 109.264 277.145 109.15 277.66 109.15C278.526 109.15 279.166 109.394 279.581 109.882C279.996 110.365 280.203 111.11 280.203 112.117V116.807H279.061C279.061 113.799 279.059 112.188 279.055 111.974C279.036 111.336 278.906 110.869 278.665 110.572C278.428 110.276 278.029 110.128 277.469 110.128C276.881 110.128 276.391 110.269 275.999 110.552C275.607 110.834 275.352 111.201 275.233 111.652C275.188 111.958 275.165 112.309 275.165 112.705V116.807H274.01ZM285.016 115.829C285.403 115.829 285.742 115.761 286.034 115.624C286.326 115.487 286.554 115.298 286.718 115.057C286.882 114.815 287.002 114.546 287.08 114.25C287.162 113.954 287.203 113.63 287.203 113.279V112.726C287.203 112.361 287.162 112.026 287.08 111.721C286.998 111.411 286.87 111.135 286.697 110.894C286.529 110.648 286.301 110.456 286.014 110.319C285.731 110.183 285.401 110.114 285.022 110.114C284.708 110.114 284.421 110.174 284.161 110.292C283.906 110.411 283.694 110.568 283.525 110.764C283.361 110.955 283.22 111.181 283.101 111.44C282.988 111.696 282.905 111.955 282.855 112.22C282.805 112.484 282.78 112.751 282.78 113.02C282.78 113.284 282.807 113.546 282.862 113.806C282.917 114.065 283.003 114.318 283.122 114.565C283.24 114.811 283.384 115.027 283.553 115.214C283.721 115.396 283.931 115.544 284.182 115.658C284.437 115.772 284.715 115.829 285.016 115.829ZM283.259 120.238L283.156 119.206H284.551C284.938 119.206 285.275 119.179 285.562 119.124C285.849 119.069 286.089 118.978 286.28 118.851C286.472 118.728 286.627 118.589 286.745 118.434C286.863 118.283 286.952 118.085 287.012 117.839C287.075 117.597 287.116 117.356 287.135 117.114C287.157 116.877 287.169 116.586 287.169 116.239V115.576C286.895 115.968 286.579 116.271 286.219 116.485C285.859 116.695 285.401 116.8 284.845 116.8C284.416 116.8 284.02 116.727 283.655 116.581C283.295 116.431 282.99 116.232 282.739 115.986C282.493 115.74 282.281 115.455 282.103 115.132C281.93 114.808 281.803 114.473 281.721 114.127C281.643 113.781 281.604 113.432 281.604 113.081C281.604 112.534 281.67 112.028 281.803 111.564C281.939 111.099 282.14 110.684 282.404 110.319C282.668 109.955 283.015 109.67 283.443 109.465C283.876 109.255 284.371 109.15 284.927 109.15C285.419 109.15 285.847 109.246 286.212 109.438C286.581 109.624 286.911 109.914 287.203 110.306V109.308H288.317V116.267C288.317 116.586 288.308 116.864 288.29 117.101C288.276 117.342 288.238 117.609 288.174 117.9C288.114 118.192 288.032 118.443 287.928 118.652C287.823 118.862 287.675 119.072 287.483 119.281C287.296 119.495 287.071 119.666 286.807 119.794C286.547 119.926 286.223 120.033 285.836 120.115C285.448 120.197 285.011 120.238 284.523 120.238H283.259ZM293.936 116.807V106.696H299.733L299.685 107.742H295.119V111.051H299.46V112.083H295.119V115.761H299.836L299.781 116.807H293.936ZM303.466 116.807L300.56 109.308H301.784L303.438 113.765C303.438 113.765 303.666 114.398 304.122 115.665C304.277 115.177 304.491 114.549 304.765 113.778C305.111 112.808 305.649 111.317 306.378 109.308H307.595L304.71 116.807H303.466ZM312.824 110.695C312.491 110.294 312.033 110.094 311.45 110.094C310.867 110.094 310.391 110.301 310.021 110.716C309.652 111.126 309.436 111.689 309.372 112.404H313.33C313.33 111.662 313.161 111.092 312.824 110.695ZM311.676 116.964C310.586 116.964 309.727 116.618 309.099 115.925C308.474 115.232 308.162 114.284 308.162 113.081C308.162 111.919 308.465 110.978 309.071 110.258C309.677 109.533 310.475 109.164 311.464 109.15C312.393 109.15 313.129 109.469 313.672 110.107C314.219 110.741 314.492 111.589 314.492 112.65C314.492 112.705 314.49 112.805 314.485 112.951C314.485 113.097 314.485 113.202 314.485 113.266H309.338C309.351 114.118 309.57 114.783 309.994 115.262C310.422 115.736 310.997 115.973 311.717 115.973C312.51 115.973 313.305 115.763 314.102 115.344L314.28 116.267C313.519 116.731 312.651 116.964 311.676 116.964ZM316.078 116.807V109.308H317.035L317.179 110.381C317.475 110.012 317.844 109.716 318.286 109.492C318.733 109.264 319.213 109.15 319.728 109.15C320.594 109.15 321.235 109.394 321.649 109.882C322.064 110.365 322.271 111.11 322.271 112.117V116.807H321.13C321.13 113.799 321.127 112.188 321.123 111.974C321.105 111.336 320.975 110.869 320.733 110.572C320.496 110.276 320.098 110.128 319.537 110.128C318.949 110.128 318.459 110.269 318.067 110.552C317.675 110.834 317.42 111.201 317.302 111.652C317.256 111.958 317.233 112.309 317.233 112.705V116.807H316.078ZM326.564 116.943C325.826 116.943 325.302 116.763 324.992 116.403C324.682 116.043 324.518 115.462 324.5 114.66V110.155H323.386L323.433 109.403L324.493 109.308L324.883 107.592L325.635 107.565V109.308H327.72V110.155H325.635V114.455C325.635 115.025 325.721 115.426 325.894 115.658C326.068 115.891 326.364 116.007 326.783 116.007C326.933 116.007 327.259 115.97 327.761 115.898L327.808 116.8C327.266 116.896 326.851 116.943 326.564 116.943ZM331.261 116.964C330.75 116.964 330.279 116.909 329.846 116.8C329.417 116.69 329.069 116.549 328.8 116.376L328.943 115.412C329.704 115.818 330.452 116.021 331.185 116.021C332.297 116.021 332.869 115.629 332.901 114.845C332.901 114.512 332.783 114.25 332.546 114.059C332.309 113.867 331.844 113.653 331.151 113.416L330.584 113.218C329.928 112.999 329.458 112.728 329.176 112.404C328.898 112.081 328.756 111.677 328.752 111.194C328.752 110.606 328.987 110.119 329.456 109.731C329.93 109.344 330.577 109.15 331.397 109.15C332.245 109.15 333.017 109.315 333.715 109.643L333.38 110.518C332.673 110.226 332.013 110.08 331.397 110.08C330.919 110.08 330.543 110.176 330.269 110.367C330.001 110.554 329.866 110.818 329.866 111.16C329.866 111.452 329.964 111.675 330.16 111.83C330.356 111.985 330.748 112.163 331.336 112.363C331.486 112.418 331.675 112.482 331.903 112.555C332.66 112.801 333.195 113.093 333.51 113.43C333.824 113.762 333.981 114.214 333.981 114.783C333.972 115.476 333.724 116.014 333.236 116.397C332.749 116.775 332.09 116.964 331.261 116.964Z" fill="#3A3A3A"/>
</svg>
