<svg width="178" height="54" viewBox="0 0 178 54" fill="none" xmlns="http://www.w3.org/2000/svg">
<circle cx="71.6196" cy="4.3087" r="4.3087" fill="white"/>
<path d="M177.754 26.7672C177.754 28.0905 177.517 29.3256 177.043 30.4725C176.569 31.6083 175.924 32.5953 175.108 33.4334C174.292 34.2604 173.332 34.9166 172.229 35.4018C171.138 35.876 169.963 36.1131 168.706 36.1131C167.46 36.1131 166.286 35.876 165.183 35.4018C164.091 34.9166 163.132 34.2604 162.305 33.4334C161.489 32.5953 160.843 31.6083 160.369 30.4725C159.895 29.3256 159.658 28.0905 159.658 26.7672C159.658 25.4218 159.895 24.1757 160.369 23.0288C160.843 21.8819 161.489 20.895 162.305 20.0679C163.132 19.2298 164.091 18.5737 165.183 18.0995C166.286 17.6253 167.46 17.3882 168.706 17.3882C169.963 17.3882 171.138 17.6142 172.229 18.0664C173.332 18.5075 174.292 19.1416 175.108 19.9686C175.924 20.7847 176.569 21.7717 177.043 22.9296C177.517 24.0764 177.754 25.3556 177.754 26.7672ZM173.205 26.7672C173.205 26.0393 173.084 25.3832 172.841 24.7987C172.61 24.2033 172.29 23.696 171.882 23.2769C171.474 22.8469 170.994 22.5215 170.443 22.301C169.903 22.0694 169.324 21.9536 168.706 21.9536C168.089 21.9536 167.504 22.0694 166.953 22.301C166.412 22.5215 165.938 22.8469 165.53 23.2769C165.133 23.696 164.819 24.2033 164.587 24.7987C164.356 25.3832 164.24 26.0393 164.24 26.7672C164.24 27.4509 164.356 28.085 164.587 28.6694C164.819 29.2539 165.133 29.7612 165.53 30.1912C165.938 30.6213 166.412 30.9632 166.953 31.2168C167.504 31.4594 168.089 31.5807 168.706 31.5807C169.324 31.5807 169.903 31.4649 170.443 31.2334C170.994 31.0018 171.474 30.6765 171.882 30.2574C172.29 29.8384 172.61 29.3311 172.841 28.7356C173.084 28.1401 173.205 27.484 173.205 26.7672Z" fill="white"/>
<path d="M157.954 13.2527C157.954 13.6718 157.871 14.0633 157.706 14.4272C157.551 14.7911 157.336 15.1109 157.061 15.3866C156.785 15.6512 156.46 15.8663 156.085 16.0317C155.721 16.1861 155.329 16.2633 154.91 16.2633C154.491 16.2633 154.094 16.1861 153.719 16.0317C153.355 15.8663 153.036 15.6512 152.76 15.3866C152.495 15.1109 152.28 14.7911 152.115 14.4272C151.96 14.0633 151.883 13.6718 151.883 13.2527C151.883 12.8447 151.96 12.4587 152.115 12.0948C152.28 11.7199 152.495 11.4001 152.76 11.1354C153.036 10.8597 153.355 10.6447 153.719 10.4903C154.094 10.3249 154.491 10.2422 154.91 10.2422C155.329 10.2422 155.721 10.3249 156.085 10.4903C156.46 10.6447 156.785 10.8597 157.061 11.1354C157.336 11.4001 157.551 11.7199 157.706 12.0948C157.871 12.4587 157.954 12.8447 157.954 13.2527ZM157.176 35.7822H152.628V18.0663H157.176V35.7822Z" fill="white"/>
<path d="M149.253 34.095C149.253 34.492 149.181 34.8669 149.038 35.2198C148.895 35.5617 148.696 35.8594 148.443 36.1131C148.189 36.3667 147.891 36.5652 147.549 36.7085C147.207 36.8629 146.838 36.9401 146.441 36.9401C146.055 36.9401 145.686 36.8629 145.333 36.7085C144.991 36.5652 144.688 36.3667 144.423 36.1131C144.169 35.8594 143.965 35.5617 143.811 35.2198C143.668 34.8669 143.596 34.492 143.596 34.095C143.596 33.709 143.668 33.3451 143.811 33.0033C143.965 32.6614 144.169 32.3637 144.423 32.11C144.688 31.8564 144.991 31.6579 145.333 31.5145C145.686 31.3602 146.055 31.283 146.441 31.283C146.838 31.283 147.207 31.3602 147.549 31.5145C147.891 31.6579 148.189 31.8564 148.443 32.11C148.696 32.3637 148.895 32.6614 149.038 33.0033C149.181 33.3451 149.253 33.709 149.253 34.095Z" fill="white"/>
<path d="M129.155 35.7822H124.639V18.0664H125.731L127.22 19.7867C127.948 19.125 128.769 18.6177 129.685 18.2649C130.611 17.9009 131.576 17.719 132.579 17.719C133.66 17.719 134.68 17.9285 135.639 18.3476C136.599 18.7556 137.437 19.3235 138.154 20.0513C138.871 20.7681 139.433 21.6117 139.841 22.5822C140.26 23.5416 140.47 24.5671 140.47 25.6589V35.7822H135.954V25.6589C135.954 25.1957 135.866 24.7601 135.689 24.3521C135.513 23.9331 135.27 23.5691 134.961 23.2604C134.652 22.9516 134.294 22.709 133.886 22.5326C133.478 22.3561 133.042 22.2679 132.579 22.2679C132.105 22.2679 131.658 22.3561 131.239 22.5326C130.82 22.709 130.456 22.9516 130.148 23.2604C129.839 23.5691 129.596 23.9331 129.42 24.3521C129.243 24.7601 129.155 25.1957 129.155 25.6589V35.7822Z" fill="white"/>
<path d="M113.888 31.4484C114.064 31.5035 114.241 31.5421 114.417 31.5642C114.594 31.5752 114.77 31.5807 114.947 31.5807C115.388 31.5807 115.812 31.5201 116.22 31.3988C116.628 31.2775 117.009 31.1065 117.362 30.886C117.726 30.6544 118.045 30.3787 118.321 30.0589C118.608 29.7281 118.839 29.3642 119.016 28.9672L122.324 32.292C121.905 32.8875 121.42 33.4223 120.868 33.8965C120.328 34.3707 119.738 34.7732 119.098 35.1041C118.47 35.4349 117.803 35.683 117.097 35.8484C116.402 36.0249 115.685 36.1131 114.947 36.1131C113.7 36.1131 112.526 35.8815 111.423 35.4183C110.332 34.9552 109.372 34.3101 108.545 33.483C107.729 32.6559 107.084 31.6745 106.61 30.5386C106.136 29.3917 105.898 28.1346 105.898 26.7672C105.898 25.3667 106.136 24.0875 106.61 22.9296C107.084 21.7717 107.729 20.7847 108.545 19.9686C109.372 19.1526 110.332 18.5185 111.423 18.0664C112.526 17.6142 113.7 17.3882 114.947 17.3882C115.685 17.3882 116.408 17.4764 117.114 17.6528C117.819 17.8293 118.486 18.0829 119.115 18.4138C119.755 18.7446 120.35 19.1526 120.902 19.6378C121.453 20.112 121.938 20.6468 122.357 21.2423L113.888 31.4484ZM116.204 22.1356C115.994 22.0584 115.785 22.0088 115.575 21.9867C115.377 21.9646 115.167 21.9536 114.947 21.9536C114.329 21.9536 113.745 22.0694 113.193 22.301C112.653 22.5215 112.179 22.8413 111.771 23.2604C111.374 23.6794 111.059 24.1867 110.828 24.7822C110.596 25.3667 110.48 26.0283 110.48 26.7672C110.48 26.9326 110.486 27.1201 110.497 27.3296C110.519 27.5391 110.547 27.7541 110.58 27.9747C110.624 28.1842 110.673 28.3882 110.729 28.5867C110.784 28.7852 110.855 28.9617 110.944 29.1161L116.204 22.1356Z" fill="white"/>
<path d="M104.592 35.7822H89.8202L97.2804 22.5986H89.8202V18.0994H104.592L97.1315 31.2829H104.592V35.7822Z" fill="white"/>
<path d="M84.7911 35.7823C83.6993 35.7823 82.6738 35.5783 81.7144 35.1703C80.755 34.7512 79.9114 34.1833 79.1835 33.4665C78.4667 32.7387 77.8988 31.8951 77.4798 30.9357C77.0717 29.9763 76.8677 28.9507 76.8677 27.8589V22.5988H74.6677V18.0995H76.8677V11.0198H81.367V18.0995H88.2152V22.5988H81.367V27.8589C81.367 28.3331 81.4552 28.7798 81.6317 29.1988C81.8081 29.6068 82.0507 29.9652 82.3595 30.274C82.6683 30.5828 83.0322 30.8309 83.4512 31.0184C83.8703 31.1948 84.3169 31.283 84.7911 31.283H88.2152V35.7823H84.7911Z" fill="white"/>
<path d="M63.3945 9.40137C68.3014 9.40148 72.7294 11.4049 75.8682 14.6211V17.0996H73.668V23.5986H75.8682V27.8584C75.8682 29.0781 76.0965 30.2382 76.5596 31.3271L76.5635 31.3359C77.0302 32.4045 77.6669 33.3509 78.4717 34.168L78.4766 34.1738L78.4824 34.1787C78.5075 34.2035 78.5342 34.2266 78.5596 34.251C75.6446 39.5128 69.9471 43.0868 63.3945 43.0869C57.5033 43.0869 52.3027 40.198 49.1943 35.791C49.7656 35.4641 50.3009 35.0837 50.7969 34.6484L50.7959 34.6475C51.4066 34.1212 51.9457 33.5281 52.4102 32.8682L52.8936 32.1816L52.3018 31.5869L48.9932 28.2627L47.9639 27.2275L47.3701 28.5615C47.2342 28.8673 47.0563 29.1477 46.834 29.4043L46.832 29.4062C46.7377 29.5157 46.635 29.6172 46.5264 29.7139C46.4826 29.5095 46.4424 29.3037 46.4062 29.0967L52.3955 21.8818L52.8838 21.293L52.4434 20.667C52.0353 20.0871 51.57 19.5579 51.0488 19.0811L50.8223 18.8799C50.215 18.3467 49.5565 17.896 48.8486 17.5293H48.8496C48.7975 17.5019 48.7449 17.4757 48.6924 17.4492C51.7229 12.6213 57.1741 9.40137 63.3945 9.40137ZM50.1367 33.8975L49.9316 34.0713C50.0008 34.0142 50.0691 33.9558 50.1367 33.8965C50.1507 33.8845 50.1639 33.8715 50.1777 33.8594C50.1637 33.8716 50.1508 33.8853 50.1367 33.8975ZM51.626 21.2432L46.2285 27.7471V27.7451L51.625 21.2422L51.626 21.2432Z" fill="white"/>
<path d="M60.5417 35.7822H56.0259V18.0664H57.1176L58.6063 19.7867C59.3342 19.125 60.1557 18.6177 61.071 18.2649C61.9973 17.9009 62.9623 17.719 63.9658 17.719C65.0465 17.719 66.0665 17.9285 67.0259 18.3476C67.9853 18.7556 68.8234 19.3235 69.5402 20.0513C70.257 20.7681 70.8194 21.6117 71.2275 22.5822C71.6465 23.5416 71.856 24.5671 71.856 25.6589V35.7822H67.3402V25.6589C67.3402 25.1957 67.252 24.7601 67.0756 24.3521C66.8991 23.9331 66.6565 23.5691 66.3477 23.2604C66.039 22.9516 65.6806 22.709 65.2725 22.5326C64.8645 22.3561 64.4289 22.2679 63.9658 22.2679C63.4916 22.2679 63.045 22.3561 62.6259 22.5326C62.2069 22.709 61.8429 22.9516 61.5342 23.2604C61.2254 23.5691 60.9828 23.9331 60.8064 24.3521C60.6299 24.7601 60.5417 25.1957 60.5417 25.6589V35.7822Z" fill="#0E69E3"/>
<path d="M43.1564 31.4484C43.3328 31.5035 43.5093 31.5421 43.6857 31.5642C43.8621 31.5752 44.0386 31.5807 44.215 31.5807C44.6561 31.5807 45.0807 31.5201 45.4887 31.3988C45.8967 31.2775 46.2772 31.1065 46.6301 30.886C46.994 30.6544 47.3138 30.3787 47.5895 30.0589C47.8762 29.7281 48.1078 29.3642 48.2842 28.9672L51.5925 32.292C51.1735 32.8875 50.6882 33.4223 50.1369 33.8965C49.5965 34.3707 49.0065 34.7732 48.3669 35.1041C47.7384 35.4349 47.0712 35.683 46.3654 35.8484C45.6707 36.0249 44.9539 36.1131 44.215 36.1131C42.9689 36.1131 41.7945 35.8815 40.6917 35.4183C39.6 34.9552 38.6406 34.3101 37.8135 33.483C36.9975 32.6559 36.3523 31.6745 35.8782 30.5386C35.404 29.3917 35.1669 28.1346 35.1669 26.7672C35.1669 25.3667 35.404 24.0875 35.8782 22.9296C36.3523 21.7717 36.9975 20.7847 37.8135 19.9686C38.6406 19.1526 39.6 18.5185 40.6917 18.0664C41.7945 17.6142 42.9689 17.3882 44.215 17.3882C44.9539 17.3882 45.6762 17.4764 46.382 17.6528C47.0877 17.8293 47.7549 18.0829 48.3835 18.4138C49.0231 18.7446 49.6186 19.1526 50.1699 19.6378C50.7213 20.112 51.2065 20.6468 51.6256 21.2423L43.1564 31.4484ZM45.4722 22.1356C45.2627 22.0584 45.0531 22.0088 44.8436 21.9867C44.6451 21.9646 44.4356 21.9536 44.215 21.9536C43.5975 21.9536 43.013 22.0694 42.4616 22.301C41.9213 22.5215 41.4471 22.8413 41.0391 23.2604C40.6421 23.6794 40.3278 24.1867 40.0962 24.7822C39.8646 25.3667 39.7488 26.0283 39.7488 26.7672C39.7488 26.9326 39.7544 27.1201 39.7654 27.3296C39.7874 27.5391 39.815 27.7541 39.8481 27.9747C39.8922 28.1842 39.9418 28.3882 39.997 28.5867C40.0521 28.7852 40.1238 28.9617 40.212 29.1161L45.4722 22.1356Z" fill="white"/>
<path d="M23.6375 35.7823L16.8885 18.0664H22.0329L25.9036 29.1161L29.7578 18.0664H34.9187L28.1698 35.7823H23.6375Z" fill="white"/>
<path d="M16.2602 35.7822H0V12.0618H16.2602V16.8092H4.74739V21.5565H12.5384V26.3039H4.74739V31.0348H16.2602V35.7822Z" fill="white"/>
<path d="M90.0399 49.1699H89.1757V41.8652H91.5292C91.8872 41.8652 92.2111 41.9027 92.5009 41.9775C92.7906 42.0524 93.0477 42.1663 93.2723 42.3193C93.4969 42.4723 93.6711 42.6774 93.7948 42.9346C93.9185 43.1917 93.9803 43.4912 93.9803 43.833C93.9803 44.1162 93.9543 44.3701 93.9022 44.5947C93.8501 44.8161 93.7606 45.0244 93.6337 45.2197C93.5067 45.415 93.3407 45.5778 93.1356 45.708C92.9305 45.835 92.6669 45.9359 92.3446 46.0107C92.0256 46.0824 91.6545 46.1182 91.2313 46.1182C90.896 46.1182 90.4989 46.097 90.0399 46.0547V49.1699ZM91.3143 45.3711C91.6333 45.3711 91.9068 45.3402 92.1346 45.2783C92.3625 45.2165 92.5367 45.14 92.6571 45.0488C92.7808 44.9577 92.8768 44.8389 92.9452 44.6924C93.0168 44.5459 93.0608 44.4124 93.077 44.292C93.0933 44.1683 93.1014 44.0202 93.1014 43.8477C93.1014 43.4342 92.9615 43.1299 92.6815 42.9346C92.4048 42.7393 92.0272 42.6416 91.5487 42.6416H90.0399V45.3613C90.6682 45.3678 91.093 45.3711 91.3143 45.3711ZM95.3719 46.5039C95.3719 47.1387 95.5119 47.6481 95.7919 48.0322C96.0751 48.4131 96.4869 48.6035 97.0272 48.6035C97.5611 48.6035 97.9631 48.4131 98.2333 48.0322C98.5067 47.6514 98.6434 47.1387 98.6434 46.4941C98.6434 45.8398 98.5083 45.3255 98.2382 44.9512C97.9712 44.5736 97.5627 44.3848 97.0126 44.3848C96.4787 44.3848 96.0718 44.5768 95.7919 44.9609C95.5119 45.3451 95.3719 45.8594 95.3719 46.5039ZM99.4882 46.4893C99.4882 47.3193 99.2668 47.9932 98.8241 48.5107C98.3814 49.0251 97.7694 49.2822 96.9882 49.2822C96.2362 49.2822 95.6372 49.0218 95.1913 48.501C94.7486 47.9801 94.5272 47.3112 94.5272 46.4941C94.5272 45.6608 94.7502 44.987 95.1962 44.4727C95.6421 43.9583 96.2541 43.7012 97.0321 43.7012C97.7971 43.7012 98.3977 43.96 98.8339 44.4775C99.2701 44.9919 99.4882 45.6624 99.4882 46.4893ZM105.23 49.1699C104.478 46.7676 104.013 45.2718 103.834 44.6826C103.733 45.0407 103.617 45.4281 103.487 45.8447C103.357 46.2614 103.243 46.6195 103.145 46.9189C103.048 47.2184 102.921 47.6058 102.765 48.0811C102.608 48.5563 102.489 48.9193 102.408 49.1699H101.529L100.001 43.8135H100.846L101.993 48.1982C102.153 47.6774 102.621 46.2158 103.399 43.8135H104.322C105.097 46.2679 105.553 47.7246 105.689 48.1836L106.822 43.8135H107.657L106.114 49.1699H105.23ZM111.485 44.8047C111.248 44.5182 110.92 44.375 110.504 44.375C110.087 44.375 109.747 44.5231 109.483 44.8193C109.22 45.1123 109.065 45.5143 109.019 46.0254H111.847C111.847 45.4948 111.726 45.0879 111.485 44.8047ZM110.665 49.2822C109.887 49.2822 109.273 49.0348 108.824 48.54C108.378 48.0452 108.155 47.3682 108.155 46.5088C108.155 45.6787 108.372 45.0065 108.805 44.4922C109.238 43.9746 109.807 43.7109 110.514 43.7012C111.178 43.7012 111.703 43.929 112.091 44.3848C112.481 44.8372 112.677 45.4427 112.677 46.2012C112.677 46.2402 112.675 46.3118 112.672 46.416C112.672 46.5202 112.672 46.5951 112.672 46.6406H108.995C109.005 47.2493 109.161 47.7246 109.464 48.0664C109.77 48.4049 110.18 48.5742 110.694 48.5742C111.261 48.5742 111.829 48.4245 112.398 48.125L112.525 48.7842C111.982 49.1162 111.362 49.2822 110.665 49.2822ZM116.212 43.7646C116.358 43.7646 116.492 43.7744 116.612 43.7939L116.583 44.5459C116.433 44.5199 116.303 44.5068 116.192 44.5068C115.737 44.5068 115.365 44.6663 115.079 44.9854C114.796 45.3011 114.654 45.6934 114.654 46.1621V49.1699H113.839C113.835 45.8822 113.834 44.0967 113.834 43.8135H114.513L114.591 44.7754C114.776 44.4727 115.012 44.2285 115.299 44.043C115.585 43.8574 115.89 43.7646 116.212 43.7646ZM118.414 43.8135V49.1699H117.594V43.8135H118.414ZM118.414 41.8652V42.832H117.594V41.8652H118.414ZM119.952 49.1699V43.8135H120.636L120.738 44.5801C120.95 44.3164 121.213 44.1048 121.529 43.9453C121.848 43.7826 122.192 43.7012 122.559 43.7012C123.178 43.7012 123.635 43.8753 123.932 44.2236C124.228 44.5687 124.376 45.1009 124.376 45.8203V49.1699H123.56C123.56 47.0215 123.559 45.8708 123.556 45.7178C123.543 45.262 123.45 44.9284 123.277 44.7168C123.108 44.5052 122.823 44.3994 122.423 44.3994C122.003 44.3994 121.653 44.5003 121.373 44.7021C121.093 44.904 120.911 45.166 120.826 45.4883C120.793 45.7064 120.777 45.957 120.777 46.2402V49.1699H119.952ZM127.813 48.4717C128.09 48.4717 128.333 48.4229 128.541 48.3252C128.749 48.2275 128.912 48.0924 129.029 47.9199C129.146 47.7474 129.233 47.5553 129.288 47.3438C129.347 47.1322 129.376 46.901 129.376 46.6504V46.2549C129.376 45.9945 129.347 45.7552 129.288 45.5371C129.229 45.3158 129.138 45.1188 129.015 44.9463C128.894 44.7705 128.731 44.6338 128.526 44.5361C128.324 44.4385 128.088 44.3896 127.818 44.3896C127.594 44.3896 127.389 44.432 127.203 44.5166C127.021 44.6012 126.869 44.7135 126.749 44.8535C126.632 44.9902 126.531 45.1514 126.446 45.3369C126.365 45.5192 126.306 45.7048 126.27 45.8936C126.235 46.0824 126.217 46.2728 126.217 46.4648C126.217 46.6536 126.236 46.8408 126.275 47.0264C126.314 47.2119 126.376 47.3926 126.461 47.5684C126.545 47.7441 126.648 47.8988 126.768 48.0322C126.889 48.1624 127.039 48.2682 127.218 48.3496C127.4 48.431 127.599 48.4717 127.813 48.4717ZM126.558 51.6211L126.485 50.8838H127.481C127.758 50.8838 127.999 50.8643 128.204 50.8252C128.409 50.7861 128.58 50.721 128.717 50.6299C128.853 50.542 128.964 50.4427 129.049 50.332C129.133 50.2246 129.197 50.083 129.239 49.9072C129.285 49.7347 129.314 49.5622 129.327 49.3896C129.343 49.2204 129.351 49.012 129.351 48.7646V48.291C129.156 48.571 128.93 48.7874 128.673 48.9404C128.416 49.0902 128.088 49.165 127.691 49.165C127.385 49.165 127.102 49.113 126.842 49.0088C126.585 48.9014 126.366 48.7598 126.187 48.584C126.012 48.4082 125.86 48.2048 125.733 47.9736C125.61 47.7425 125.518 47.5033 125.46 47.2559C125.405 47.0085 125.377 46.7594 125.377 46.5088C125.377 46.1182 125.424 45.7568 125.518 45.4248C125.616 45.0928 125.759 44.7965 125.948 44.5361C126.137 44.2757 126.384 44.0723 126.69 43.9258C127 43.776 127.353 43.7012 127.75 43.7012C128.101 43.7012 128.407 43.7695 128.668 43.9062C128.932 44.0397 129.168 44.2464 129.376 44.5264V43.8135H130.172V48.7842C130.172 49.012 130.165 49.2106 130.152 49.3799C130.142 49.5524 130.115 49.7428 130.069 49.9512C130.027 50.1595 129.968 50.3385 129.893 50.4883C129.819 50.638 129.713 50.7878 129.576 50.9375C129.443 51.0905 129.281 51.2126 129.093 51.3037C128.907 51.3981 128.676 51.4746 128.399 51.5332C128.123 51.5918 127.81 51.6211 127.462 51.6211H126.558ZM134.185 49.1699V41.9482H138.326L138.292 42.6953H135.03V45.0586H138.131V45.7959H135.03V48.4229H138.399L138.36 49.1699H134.185ZM140.992 49.1699L138.917 43.8135H139.791L140.973 46.9971C140.973 46.9971 141.135 47.4495 141.461 48.3545C141.571 48.0062 141.724 47.557 141.92 47.0068C142.167 46.3135 142.551 45.249 143.072 43.8135H143.941L141.881 49.1699H140.992ZM147.677 44.8047C147.439 44.5182 147.112 44.375 146.695 44.375C146.279 44.375 145.938 44.5231 145.675 44.8193C145.411 45.1123 145.256 45.5143 145.211 46.0254H148.038C148.038 45.4948 147.918 45.0879 147.677 44.8047ZM146.856 49.2822C146.078 49.2822 145.465 49.0348 145.016 48.54C144.57 48.0452 144.347 47.3682 144.347 46.5088C144.347 45.6787 144.563 45.0065 144.996 44.4922C145.429 43.9746 145.999 43.7109 146.705 43.7012C147.369 43.7012 147.895 43.929 148.282 44.3848C148.673 44.8372 148.868 45.4427 148.868 46.2012C148.868 46.2402 148.866 46.3118 148.863 46.416C148.863 46.5202 148.863 46.5951 148.863 46.6406H145.186C145.196 47.2493 145.352 47.7246 145.655 48.0664C145.961 48.4049 146.371 48.5742 146.886 48.5742C147.452 48.5742 148.02 48.4245 148.59 48.125L148.717 48.7842C148.173 49.1162 147.553 49.2822 146.856 49.2822ZM150.001 49.1699V43.8135H150.684L150.787 44.5801C150.999 44.3164 151.262 44.1048 151.578 43.9453C151.897 43.7826 152.24 43.7012 152.608 43.7012C153.227 43.7012 153.684 43.8753 153.98 44.2236C154.277 44.5687 154.425 45.1009 154.425 45.8203V49.1699H153.609C153.609 47.0215 153.608 45.8708 153.604 45.7178C153.591 45.262 153.499 44.9284 153.326 44.7168C153.157 44.5052 152.872 44.3994 152.472 44.3994C152.052 44.3994 151.702 44.5003 151.422 44.7021C151.142 44.904 150.96 45.166 150.875 45.4883C150.842 45.7064 150.826 45.957 150.826 46.2402V49.1699H150.001ZM157.491 49.2676C156.964 49.2676 156.589 49.139 156.368 48.8818C156.147 48.6247 156.03 48.2096 156.016 47.6367V44.4189H155.221L155.255 43.8818L156.012 43.8135L156.29 42.5879L156.827 42.5684V43.8135H158.316V44.4189H156.827V47.4902C156.827 47.8971 156.889 48.1836 157.013 48.3496C157.136 48.5156 157.348 48.5986 157.647 48.5986C157.755 48.5986 157.988 48.5726 158.346 48.5205L158.38 49.165C157.992 49.2334 157.696 49.2676 157.491 49.2676ZM160.846 49.2822C160.481 49.2822 160.144 49.2432 159.835 49.165C159.529 49.0869 159.28 48.986 159.088 48.8623L159.19 48.1738C159.734 48.4635 160.268 48.6084 160.792 48.6084C161.586 48.6084 161.995 48.3285 162.017 47.7686C162.017 47.5309 161.933 47.3438 161.764 47.207C161.594 47.0703 161.262 46.9173 160.767 46.748L160.362 46.6064C159.893 46.4502 159.558 46.2565 159.356 46.0254C159.158 45.7943 159.057 45.5062 159.054 45.1611C159.054 44.7412 159.221 44.3929 159.557 44.1162C159.895 43.8395 160.357 43.7012 160.943 43.7012C161.549 43.7012 162.1 43.8184 162.599 44.0527L162.359 44.6777C161.855 44.4694 161.383 44.3652 160.943 44.3652C160.601 44.3652 160.333 44.4336 160.138 44.5703C159.946 44.7038 159.849 44.8926 159.849 45.1367C159.849 45.3451 159.919 45.5046 160.059 45.6152C160.199 45.7259 160.479 45.8529 160.899 45.9961C161.007 46.0352 161.142 46.0807 161.305 46.1328C161.845 46.3086 162.227 46.5169 162.452 46.7578C162.677 46.9954 162.789 47.3177 162.789 47.7246C162.782 48.2194 162.605 48.6035 162.257 48.877C161.908 49.1471 161.438 49.2822 160.846 49.2822Z" fill="#F3F3F3"/>
</svg>
