<svg xmlns="http://www.w3.org/2000/svg" width="24" height="24" viewBox="0 0 24 24"><g transform="translate(-338 -242)"><rect width="24" height="24" transform="translate(338 242)" fill="rgba(0,0,0,0)"/><path d="M358,263h-6a1,1,0,0,1-1-1v-8a1,1,0,0,1,1-1h6a1,1,0,0,1,1,1v8A1,1,0,0,1,358,263Zm-10,0h-6a1,1,0,0,1-1-1v-4a1,1,0,0,1,1-1h6a1,1,0,0,1,1,1v4A1,1,0,0,1,348,263Zm0-8h-6a1,1,0,0,1-1-1v-8a1,1,0,0,1,1-1h6a1,1,0,0,1,1,1v8A1,1,0,0,1,348,255Zm10-4h-6a1,1,0,0,1-1-1v-4a1,1,0,0,1,1-1h6a1,1,0,0,1,1,1v4A1,1,0,0,1,358,251Z" fill="#000"/></g></svg>