<svg xmlns="http://www.w3.org/2000/svg" width="14.709" height="14.668" viewBox="0 0 14.709 14.668"><g transform="translate(0.201 0.192)"><path d="M283.425,208.9h-5.648a.446.446,0,1,1,0-.892h5.648a.446.446,0,1,1,0,.892Zm0,0" transform="translate(-269.604 -202.204)" fill="#ff7249" stroke="#ff7249" stroke-width="0.4"/><path d="M400.45,133.321a.446.446,0,0,1-.315-.762l1.914-1.914-1.914-1.914a.446.446,0,1,1,.631-.631l2.229,2.229a.446.446,0,0,1,0,.631l-2.229,2.229A.443.443,0,0,1,400.45,133.321Zm0,0" transform="translate(-388.858 -124.396)" fill="#ff7249" stroke="#ff7249" stroke-width="0.4"/><path d="M4.756,14.275a1.225,1.225,0,0,1-.369-.055L.809,13.028A1.2,1.2,0,0,1,0,11.9V1.2A1.19,1.19,0,0,1,1.189.008a1.226,1.226,0,0,1,.369.055L5.135,1.255a1.2,1.2,0,0,1,.81,1.131v10.7a1.19,1.19,0,0,1-1.189,1.189ZM1.189.9a.3.3,0,0,0-.3.3V11.9a.309.309,0,0,0,.206.286l3.561,1.187a.323.323,0,0,0,.1.013.3.3,0,0,0,.3-.3V2.386A.309.309,0,0,0,4.846,2.1L1.286.913A.323.323,0,0,0,1.189.9Zm0,0" transform="translate(0 0)" fill="#ff7249" stroke="#ff7249" stroke-width="0.4"/><path d="M34.991,4.764a.446.446,0,0,1-.446-.446V1.643A.744.744,0,0,0,33.8.9H27.114a.446.446,0,0,1,0-.892H33.8a1.636,1.636,0,0,1,1.635,1.635V4.318A.446.446,0,0,1,34.991,4.764Zm0,0" transform="translate(-25.925)" fill="#ff7249" stroke="#ff7249" stroke-width="0.4"/><path d="M184.156,282.1h-2.378a.446.446,0,1,1,0-.892h2.378a.744.744,0,0,0,.743-.743v-2.675a.446.446,0,1,1,.892,0v2.675A1.636,1.636,0,0,1,184.156,282.1Zm0,0" transform="translate(-176.279 -269.604)" fill="#ff7249" stroke="#ff7249" stroke-width="0.4"/></g></svg>