<svg xmlns="http://www.w3.org/2000/svg" width="26" height="22.164" viewBox="0 0 26 22.164"><g transform="translate(0 -6.348)"><path d="M15.69,10.152a4.793,4.793,0,0,1,2.2,3.555,3.752,3.752,0,0,0,1.611.365,3.863,3.863,0,1,0-3.81-3.921Zm-2.5,7.909A3.863,3.863,0,1,0,9.378,14.2,3.838,3.838,0,0,0,13.192,18.061Zm1.617.263H11.574A4.92,4.92,0,0,0,6.691,23.27v4.008l.01.063.273.086a21.963,21.963,0,0,0,6.638,1.084,13.482,13.482,0,0,0,5.8-1.1l.255-.13h.027V23.27A4.919,4.919,0,0,0,14.809,18.324Zm6.309-3.988H17.907a4.788,4.788,0,0,1-1.45,3.316A5.867,5.867,0,0,1,20.6,23.276v1.235a13,13,0,0,0,5.117-1.089l.255-.131H26v-4.01A4.92,4.92,0,0,0,21.118,14.337ZM6.5,14.074a3.752,3.752,0,0,0,2.028-.6A4.792,4.792,0,0,1,10.3,10.429c0-.072.011-.144.011-.217A3.813,3.813,0,1,0,6.5,14.074Zm3.424,3.579a4.791,4.791,0,0,1-1.449-3.3c-.119-.009-.237-.018-.358-.018H4.882A4.92,4.92,0,0,0,0,19.282v4.009l.01.062.273.087a22.63,22.63,0,0,0,5.5,1.047V23.276A5.868,5.868,0,0,1,9.925,17.652Z" fill="#000"/></g></svg>